# xmcd
#
# Track frame offsets: 
#        150
#        23768
#        46303
#        74568
#        112468
#        131295
#        154790
#        166185
#        178823
#
# Disc length: 2714 seconds
#
# Revision: 1
# Processed by: cddbd v1.5.2PL0 Copyright (c) Steve Scherf et al.
# Submitted via: ExactAudioCopyFreeDBPlugin 1.0
#
DISCID=7a0a9809
DTITLE=Marius Müller-Westernhagen - Westernhagen - Live
DYEAR=1990
DGENRE=Poprock
TTITLE0=Lieb' mich [live]
TTITLE1=Ganz und gar [live]
TTITLE2=Sexy [live]
TTITLE3=Nimm mich mit [live]
TTITLE4=Dicke [live]
TTITLE5=Lass' uns leben [live]
TTITLE6=Geiler is' schon [live]
TTITLE7=Freiheit [live]
TTITLE8=Johnny W. [live]
EXTD=
EXTT0=
EXTT1=
EXTT2=
EXTT3=
EXTT4=
EXTT5=
EXTT6=
EXTT7=
EXTT8=
PLAYORDER=
